<svg width="24" height="21" viewBox="0 0 24 21" fill="none" xmlns="http://www.w3.org/2000/svg">
<path fill-rule="evenodd" clip-rule="evenodd" d="M21.4237 10.7445H2.58C1.15657 10.7445 0.00206894 9.60549 0 8.19915V2.54903C0 1.14124 1.15511 0 2.58 0H21.4237C22.8472 0.00204411 24 1.14269 24 2.54903V8.19915C23.9979 9.60404 22.8457 10.7424 21.4237 10.7445ZM2.58012 1.48213C1.98365 1.48213 1.50012 1.95985 1.50012 2.54916V8.19928C1.50218 8.78714 1.98511 9.26261 2.58012 9.26261H21.4239C22.0174 9.26057 22.4981 8.78569 22.5001 8.19928V2.54916C22.5001 1.9613 22.0189 1.48417 21.4239 1.48213H2.58012Z" fill="#4B4B4B"/>
<path d="M4.68848 8.15125H19.3135C19.7277 8.15125 20.0635 7.81949 20.0635 7.41025C20.0635 7.00101 19.7277 6.66925 19.3135 6.66925H4.68848C4.27426 6.66925 3.93848 7.00101 3.93848 7.41025C3.93848 7.81949 4.27426 8.15125 4.68848 8.15125Z" fill="#4B4B4B"/>
<ellipse cx="20.251" cy="2.96408" rx="0.75" ry="0.740998" fill="#4B4B4B"/>
<path d="M14.25 11.6709C13.8358 11.6709 13.5 12.0027 13.5 12.4119V17.4062C13.4985 18.6162 14.2353 19.7078 15.3664 20.1716C16.4976 20.6353 17.8001 20.3797 18.6661 19.5241C19.5321 18.6685 19.7908 17.3816 19.3214 16.264C18.8521 15.1464 17.7472 14.4185 16.5225 14.42C16.1083 14.42 15.7725 14.7518 15.7725 15.161C15.7725 15.5702 16.1083 15.902 16.5225 15.902C17.3634 15.902 18.045 16.5755 18.045 17.4062C18.045 18.237 17.3634 18.9105 16.5225 18.9105C15.6816 18.9105 15 18.237 15 17.4062V12.4119C15 12.0027 14.6642 11.6709 14.25 11.6709Z" fill="#4B4B4B"/>
<path d="M8.24954 12.4119V16.5911C8.27394 17.0137 8.05964 17.4148 7.69281 17.6334C7.32597 17.8519 6.86685 17.8519 6.50002 17.6334C6.13318 17.4148 5.91889 17.0137 5.94329 16.5911C5.94329 16.1819 5.6075 15.8501 5.19329 15.8501C4.77908 15.8501 4.44329 16.1819 4.44329 16.5911C4.40675 17.5511 4.90429 18.4541 5.74021 18.9448C6.57613 19.4355 7.61669 19.4355 8.45262 18.9448C9.28854 18.4541 9.78608 17.5511 9.74954 16.5911V12.4119C9.74954 12.0027 9.41375 11.6709 8.99954 11.6709C8.58533 11.6709 8.24954 12.0027 8.24954 12.4119Z" fill="#4B4B4B"/>
<path d="M10.876 12.4119V15.7464C10.876 16.1556 11.2118 16.4874 11.626 16.4874C12.0402 16.4874 12.376 16.1556 12.376 15.7464V12.4119C12.376 12.0027 12.0402 11.6709 11.626 11.6709C11.2118 11.6709 10.876 12.0027 10.876 12.4119Z" fill="#4B4B4B"/>
</svg>
