<svg width="20" height="20" viewBox="0 0 20 20" fill="none" xmlns="http://www.w3.org/2000/svg">
<path fill-rule="evenodd" clip-rule="evenodd" d="M18.8819 15.2344C19.3888 15.2344 19.7998 14.8234 19.7998 14.3164V0.91793C19.7998 0.410972 19.3888 0 18.8819 0H1.71773C1.21077 0 0.799805 0.410971 0.799805 0.917929V14.3164C0.799805 14.8234 1.21078 15.2344 1.71773 15.2344H7.5166V18.8281H5.87598C5.55237 18.8281 5.29004 19.0905 5.29004 19.4141C5.29004 19.7377 5.55237 20 5.87598 20H14.7236C15.0472 20 15.3096 19.7377 15.3096 19.4141C15.3096 19.0905 15.0472 18.8281 14.7236 18.8281H13.083V15.2344H18.8819ZM1.91309 1.63084C1.91309 1.37736 2.11857 1.17188 2.37205 1.17188H18.2276C18.481 1.17188 18.6865 1.37736 18.6865 1.63084V13.6035C18.6865 13.857 18.481 14.0625 18.2276 14.0625H2.37205C2.11857 14.0625 1.91309 13.857 1.91309 13.6035V1.63084ZM8.62977 18.8279H11.9696V15.2341H8.62977V18.8279Z" fill="#111111" fill-opacity="0.7"/>
<path fill-rule="evenodd" clip-rule="evenodd" d="M11.5983 5.62848C12.1071 5.05031 12.8337 4.6875 13.6396 4.6875C15.1743 4.6875 16.4229 6.00176 16.4229 7.61719C16.4229 9.23262 15.1743 10.5469 13.6396 10.5469C12.8337 10.5469 12.1071 10.1841 11.5983 9.6059L9.70023 10.7382C9.72799 10.8652 9.74316 10.9971 9.74316 11.1328C9.74316 12.1021 8.99404 12.8906 8.07324 12.8906C7.15245 12.8906 6.40332 12.1021 6.40332 11.1328C6.40332 10.1636 7.15245 9.375 8.07324 9.375C8.46059 9.375 8.81729 9.51496 9.10091 9.74883L11.0194 8.6043C10.7999 7.96063 10.8042 7.26113 11.0194 6.63012L9.10091 5.48559C8.81729 5.71941 8.46059 5.85938 8.07324 5.85938C7.15245 5.85938 6.40332 5.07082 6.40332 4.10156C6.40332 3.1323 7.15245 2.34375 8.07324 2.34375C8.99404 2.34375 9.74316 3.1323 9.74316 4.10156C9.74316 4.23727 9.72799 4.36918 9.70023 4.49613L11.5983 5.62848ZM7.5166 4.10156C7.5166 4.42465 7.76631 4.6875 8.07324 4.6875C8.38017 4.6875 8.62988 4.42465 8.62988 4.10156C8.62988 3.77848 8.38017 3.51562 8.07324 3.51562C7.76631 3.51562 7.5166 3.77848 7.5166 4.10156ZM8.07324 11.719C7.76631 11.719 7.5166 11.4561 7.5166 11.1331C7.5166 10.81 7.76631 10.5471 8.07324 10.5471C8.38017 10.5471 8.62988 10.81 8.62988 11.1331C8.62988 11.4561 8.38017 11.719 8.07324 11.719ZM11.9697 7.61719C11.9697 8.58645 12.7189 9.375 13.6396 9.375C14.5604 9.375 15.3096 8.58645 15.3096 7.61719C15.3096 6.64793 14.5604 5.85938 13.6396 5.85938C12.7189 5.85938 11.9697 6.64793 11.9697 7.61719Z" fill="#111111" fill-opacity="0.7"/>
</svg>
