<svg width="24" height="24" viewBox="0 0 24 24" fill="none" xmlns="http://www.w3.org/2000/svg">
<path d="M10.4002 19.2008C7.3123 19.2008 4.80019 16.6887 4.80019 13.6008C4.80019 13.159 4.44199 12.8008 4.0002 12.8008C3.5584 12.8008 3.2002 13.159 3.2002 13.6008C3.2002 17.5707 6.43027 20.8008 10.4002 20.8008C10.842 20.8008 11.2002 20.4426 11.2002 20.0008C11.2002 19.559 10.842 19.2008 10.4002 19.2008Z" fill="#4B4B4B"/>
<path fill-rule="evenodd" clip-rule="evenodd" d="M20.8 9.03845V8.80051C20.8 7.47708 19.7234 6.40051 18.4 6.40051H2.4C1.07656 6.40051 0 7.47708 0 8.80051V13.6005C0 17.3074 1.95537 20.5585 4.88276 22.4005H0.8C0.358203 22.4005 0 22.7587 0 23.2005C0 23.6423 0.358203 24.0005 0.8 24.0005H19.4664C19.9086 24.0005 20.2664 23.6423 20.2664 23.2005C20.2664 22.7587 19.9086 22.4005 19.4664 22.4005H15.917C16.9379 21.7582 17.8387 20.9466 18.5805 20.0005H19.207C20.5117 20.0005 21.7336 19.3954 22.6539 18.2904C23.5219 17.2255 24 15.8271 24 14.3521C24 11.9409 22.6832 9.8218 20.8 9.03845ZM10.3996 22.4003C5.54727 22.4003 1.59961 18.4527 1.59961 13.6003V8.80033C1.59961 8.35931 1.95859 8.00033 2.39961 8.00033H18.3996C18.841 8.00033 19.1996 8.35931 19.1996 8.80033V13.6003C19.1996 18.4527 15.252 22.4003 10.3996 22.4003ZM19.643 18.3473C20.3024 18.2314 20.9224 17.8696 21.4193 17.273C22.0505 16.4992 22.4005 15.4593 22.4005 14.3519C22.4005 12.8751 21.7657 11.5566 20.8005 10.8492V13.6004C20.8005 15.3111 20.3779 16.9224 19.643 18.3473Z" fill="#4B4B4B"/>
<path d="M11.6348 1.35497L11.1789 0.442863C10.9816 0.0483317 10.5019 -0.113778 10.1055 0.0850505C9.71053 0.282707 9.54998 0.763176 9.74764 1.15849L10.2008 2.06513C10.2508 2.16708 10.2305 2.30224 10.1461 2.38661C9.66913 2.86279 9.48983 3.54286 9.666 4.20614C9.76092 4.56435 10.0848 4.80107 10.4387 4.80107C10.5066 4.80107 10.5758 4.79208 10.6445 4.77372C11.0715 4.66044 11.3258 4.22216 11.2121 3.79521C11.1957 3.73271 11.1816 3.61357 11.2851 3.51005C11.8492 2.94521 11.991 2.08153 11.6348 1.35497Z" fill="#4B4B4B"/>
<path d="M14.6126 3.43659C15.1212 2.8737 15.2376 2.0319 14.8939 1.36042L14.4462 0.448306C14.2517 0.0526027 13.7735 -0.11185 13.3759 0.0822902C12.979 0.277212 12.8157 0.756509 13.0103 1.15299L13.4634 2.07721C13.5134 2.1737 13.4931 2.29791 13.4173 2.37252C13.3892 2.39948 13.3642 2.42838 13.3407 2.45885C12.9103 2.93151 12.7548 3.59674 12.9353 4.22252C13.0368 4.57292 13.3564 4.80104 13.704 4.80104C13.7767 4.80104 13.8517 4.79049 13.9259 4.7694C14.3501 4.64674 14.5954 4.20338 14.4728 3.77877C14.4525 3.71002 14.447 3.61002 14.5337 3.52604C14.5618 3.49831 14.5884 3.46862 14.6126 3.43659Z" fill="#4B4B4B"/>
<path d="M8.43553 1.35497L7.97967 0.442863C7.78202 0.0483317 7.30233 -0.113778 6.90623 0.0850505C6.51131 0.282707 6.35077 0.763176 6.54842 1.15849L7.00155 2.06513C7.05155 2.16708 7.03123 2.30224 6.94686 2.38661C6.46991 2.86278 6.29061 3.54286 6.46678 4.20614C6.5617 4.56435 6.88553 4.80107 7.23944 4.80107C7.30741 4.80107 7.37655 4.79208 7.4453 4.77372C7.87225 4.66044 8.12655 4.22216 8.01288 3.79521C7.99647 3.73271 7.98241 3.61357 8.08592 3.51005C8.64998 2.94521 8.79178 2.08153 8.43553 1.35497Z" fill="#4B4B4B"/>
</svg>
