<svg width="18" height="20" viewBox="0 0 18 20" fill="none" xmlns="http://www.w3.org/2000/svg">
<path d="M15.942 20.0001H1.44928C1.0649 20.0001 0.696275 19.8496 0.424483 19.5817C0.152691 19.3138 0 18.9504 0 18.5715V10.0001C0 9.62122 0.152691 9.25786 0.424483 8.98995C0.696275 8.72204 1.0649 8.57153 1.44928 8.57153H3.62319V10.0001H1.44928V18.5715H15.942V10.0001H13.7681V8.57153H15.942C16.3264 8.57153 16.695 8.72204 16.9668 8.98995C17.2386 9.25786 17.3913 9.62122 17.3913 10.0001V18.5715C17.3913 18.9504 17.2386 19.3138 16.9668 19.5817C16.695 19.8496 16.3264 20.0001 15.942 20.0001Z" fill="#787878"/>
<path d="M6.52255 12.8571H10.8704V14.2857H6.52255V12.8571ZM12.0225 4.70714L9.4211 7.26429V0H7.97182V7.26429L5.37037 4.70714L4.34863 5.71429L8.69646 10L13.0443 5.71429L12.0225 4.70714Z" fill="#787878"/>
</svg>
