<svg width="24" height="18" viewBox="0 0 24 18" fill="none" xmlns="http://www.w3.org/2000/svg">
<path fill-rule="evenodd" clip-rule="evenodd" d="M22.4797 12.9442C22.1693 7.59832 17.9843 3.29943 12.75 2.92105V2.12725C13.164 2.12725 13.5 1.78514 13.5 1.36361C13.5 0.942085 13.164 0.599976 12.75 0.599976H11.25C10.836 0.599976 10.5 0.942085 10.5 1.36361C10.5 1.78514 10.836 2.12725 11.25 2.12725V2.92105C6.01575 3.29943 1.83075 7.59832 1.52025 12.9442C0.637125 13.2538 0 14.106 0 15.1091V16.6363C0 17.0579 0.336 17.4 0.75 17.4H23.25C23.664 17.4 24 17.0579 24 16.6363V15.1091C24 14.106 23.3629 13.2538 22.4797 12.9442ZM12.0002 4.41809C16.7102 4.41809 20.584 8.12135 20.9665 12.8181H3.03398C3.41648 8.12135 7.29023 4.41809 12.0002 4.41809ZM1.50117 15.8727H22.5012V15.109C22.5012 14.6879 22.1648 14.3454 21.7512 14.3454H2.25117C1.83755 14.3454 1.50117 14.6879 1.50117 15.109V15.8727Z" fill="#4B4B4B"/>
</svg>
