<svg width="28" height="20" viewBox="0 0 28 20" fill="none" xmlns="http://www.w3.org/2000/svg">
<path fill-rule="evenodd" clip-rule="evenodd" d="M26.2264 14.6955C25.8641 8.33136 20.9816 3.21364 14.875 2.76318V1.81818C15.358 1.81818 15.75 1.41091 15.75 0.909091C15.75 0.407273 15.358 0 14.875 0H13.125C12.642 0 12.25 0.407273 12.25 0.909091C12.25 1.41091 12.642 1.81818 13.125 1.81818V2.76318C7.01838 3.21364 2.13587 8.33136 1.77363 14.6955C0.743313 15.0641 0 16.0786 0 17.2727V19.0909C0 19.5927 0.392 20 0.875 20H27.125C27.608 20 28 19.5927 28 19.0909V17.2727C28 16.0786 27.2567 15.0641 26.2264 14.6955ZM13.9997 4.54541C19.4947 4.54541 24.0141 8.95405 24.4603 14.5454H3.53906C3.98531 8.95405 8.50469 4.54541 13.9997 4.54541ZM1.75 18.182H26.25V17.2729C26.25 16.7715 25.8576 16.3638 25.375 16.3638H2.625C2.14244 16.3638 1.75 16.7715 1.75 17.2729V18.182Z" fill="#787878"/>
</svg>
