<svg width="16" height="19" viewBox="0 0 16 19" fill="none" xmlns="http://www.w3.org/2000/svg">
<path fill-rule="evenodd" clip-rule="evenodd" d="M0.468751 18.8235H5.25242C5.51129 18.8235 5.72117 18.5766 5.72117 18.272V17.6576C5.72117 16.3827 5.11545 15.2711 4.22482 14.7002C4.54114 14.3051 4.73561 13.7736 4.73561 13.1893C4.73561 11.973 3.89448 10.9834 2.8606 10.9834C1.82672 10.9834 0.985596 11.973 0.985596 13.1893C0.985596 13.7736 1.18007 14.3051 1.49638 14.7002C0.60572 15.2711 0 16.3827 0 17.6576V18.272C0 18.5766 0.209876 18.8235 0.468751 18.8235ZM1.92285 13.1891C1.92285 12.5809 2.34342 12.0861 2.86035 12.0861C3.37729 12.0861 3.79786 12.5809 3.79786 13.1891C3.79786 13.7972 3.37729 14.292 2.86035 14.292C2.34342 14.292 1.92285 13.7972 1.92285 13.1891ZM4.78366 17.7203C4.78366 16.3211 3.86488 15.3949 2.8606 15.3949C1.85094 15.3949 0.9375 16.3284 0.9375 17.7203H4.78366Z" fill="#4B4B4B"/>
<path fill-rule="evenodd" clip-rule="evenodd" d="M14.5031 14.7002C14.8194 14.3051 15.0139 13.7736 15.0139 13.1893C15.0139 11.973 14.1728 10.9834 13.1389 10.9834C12.105 10.9834 11.2639 11.973 11.2639 13.1893C11.2639 13.7736 11.4584 14.3051 11.7747 14.7002C10.884 15.2711 10.2783 16.3827 10.2783 17.6576V18.272C10.2783 18.5766 10.4882 18.8235 10.7471 18.8235H15.5307C15.7896 18.8235 15.9995 18.5766 15.9995 18.272V17.6576C15.9995 16.3827 15.3937 15.2711 14.5031 14.7002ZM12.2012 13.1891C12.2012 12.5809 12.6217 12.0861 13.1387 12.0861C13.6556 12.0861 14.0762 12.5809 14.0762 13.1891C14.0762 13.7972 13.6556 14.292 13.1387 14.292C12.6217 14.292 12.2012 13.7972 12.2012 13.1891ZM11.2158 17.7203H15.062C15.062 16.321 14.1431 15.3949 13.1389 15.3949C12.1293 15.3949 11.2158 16.3284 11.2158 17.7203Z" fill="#4B4B4B"/>
<path fill-rule="evenodd" clip-rule="evenodd" d="M10.8608 7.28862V6.67421C10.8608 5.39931 10.2551 4.28773 9.36447 3.71681C9.68075 3.32174 9.87522 2.79019 9.87522 2.20589C9.87522 0.989561 9.0341 0 8.00022 0C6.96634 0 6.12521 0.989561 6.12521 2.20589C6.12521 2.79019 6.31968 3.32174 6.636 3.71681C5.74537 4.28773 5.13965 5.39931 5.13965 6.67421V7.28862C5.13965 7.59318 5.34952 7.84009 5.6084 7.84009H10.3921C10.6509 7.84009 10.8608 7.59318 10.8608 7.28862ZM7.0625 2.20588C7.0625 1.59772 7.48306 1.10294 8 1.10294C8.51694 1.10294 8.9375 1.59772 8.9375 2.20588C8.9375 2.81405 8.51694 3.30883 8 3.30883C7.48306 3.30883 7.0625 2.81405 7.0625 2.20588ZM8.00025 4.41176C6.99059 4.41176 6.07715 5.34526 6.07715 6.73714H9.92335C9.92335 5.33787 9.00447 4.41176 8.00025 4.41176Z" fill="#4B4B4B"/>
<path d="M9.89317 13.9354C9.28076 14.1721 8.63497 14.2921 7.97385 14.2921C7.33588 14.2921 6.71116 14.18 6.11706 13.9589C5.87016 13.8672 5.60681 14.028 5.52878 14.3184C5.45072 14.6088 5.58753 14.9187 5.83434 15.0105C6.51997 15.2656 7.23982 15.395 7.97382 15.395C8.73454 15.395 9.47873 15.2565 10.1857 14.9833C10.4317 14.8882 10.5656 14.5766 10.4848 14.2872C10.404 13.9979 10.1391 13.8403 9.89317 13.9354Z" fill="#4B4B4B"/>
<path d="M3.67887 4.57043C3.16118 5.15752 2.72109 5.84002 2.3708 6.59903C2.0078 7.38562 1.75618 8.22113 1.62293 9.08242C1.57071 9.41996 1.79087 9.73272 2.08465 9.73272C2.30677 9.73272 2.50409 9.54614 2.54527 9.27992C2.66071 8.53385 2.87921 7.80893 3.19468 7.12532C3.49915 6.46565 3.88093 5.87322 4.3295 5.36454C4.51587 5.15318 4.52134 4.80407 4.34168 4.58476C4.162 4.3655 3.86528 4.35906 3.67887 4.57043Z" fill="#4B4B4B"/>
<path d="M12.3204 4.57044C12.134 4.35904 11.8373 4.36551 11.6576 4.58478C11.478 4.80408 11.4834 5.1532 11.6698 5.36456C12.1184 5.87324 12.5002 6.46563 12.8046 7.12534C13.1201 7.80898 13.3386 8.53391 13.454 9.27994C13.5003 9.57924 13.7441 9.77828 13.9991 9.72372C14.2538 9.6692 14.4227 9.38203 14.3764 9.08244C14.2431 8.22115 13.9915 7.38563 13.6285 6.59905C13.2782 5.84004 12.8381 5.1575 12.3204 4.57044Z" fill="#4B4B4B"/>
</svg>
