<svg width="24" height="24" viewBox="0 0 24 24" fill="none" xmlns="http://www.w3.org/2000/svg">
<path fill-rule="evenodd" clip-rule="evenodd" d="M20.4844 8.53137H10.5469C10.1586 8.53137 9.84375 8.21656 9.84375 7.82825V3.51575C9.84375 3.12743 10.1586 2.81262 10.5469 2.81262H20.4844C20.8727 2.81262 21.1875 3.12743 21.1875 3.51575V7.82825C21.1875 8.21656 20.8727 8.53137 20.4844 8.53137ZM19.7812 4.21888H11.25V7.12513H19.7812V4.21888Z" fill="#4B4B4B"/>
<path fill-rule="evenodd" clip-rule="evenodd" d="M5.625 0H23.2969C23.6852 0 24 0.314813 24 0.703125V20.4844C24 20.8727 23.6852 21.1875 23.2969 21.1875H9.84375V21.5391C9.84375 22.896 8.73975 24 7.38281 24C6.02588 24 4.92188 22.896 4.92188 21.5391V21.1436C2.15086 20.7966 0 18.426 0 15.5625V5.625C0 2.52338 2.52338 0 5.625 0ZM4.21875 15.5626C4.21875 16.338 4.84959 16.9688 5.625 16.9688C6.40041 16.9688 7.03125 16.338 7.03125 15.5626V5.62506C7.03125 4.84966 6.40041 4.21881 5.625 4.21881C4.84959 4.21881 4.21875 4.84966 4.21875 5.62506V15.5626ZM8.4375 21.5392C8.4375 22.1207 7.96434 22.5939 7.38281 22.5939C6.80128 22.5939 6.32812 22.1207 6.32812 21.5392V21.1876H8.4375V21.5392ZM6.32914 19.7814H22.5948V1.40638H5.62602C3.2998 1.40638 1.40727 3.29891 1.40727 5.62513V15.5626C1.40727 17.6493 2.93019 19.3867 4.92289 19.7225V18.2861C3.71122 17.9731 2.81352 16.8707 2.81352 15.5626V5.62513C2.81352 4.07431 4.07521 2.81263 5.62602 2.81263C7.17683 2.81263 8.43852 4.07431 8.43852 5.62513V15.5626C8.43852 16.8707 7.54082 17.9731 6.32914 18.2861V19.7814Z" fill="#4B4B4B"/>
<path d="M10.5469 11.344H12C12.3883 11.344 12.7031 11.0292 12.7031 10.6409C12.7031 10.2526 12.3883 9.93774 12 9.93774H10.5469C10.1586 9.93774 9.84375 10.2526 9.84375 10.6409C9.84375 11.0292 10.1586 11.344 10.5469 11.344Z" fill="#4B4B4B"/>
<path d="M16.2187 9.93774H14.8125C14.4242 9.93774 14.1094 10.2526 14.1094 10.6409C14.1094 11.0292 14.4242 11.344 14.8125 11.344H16.2187C16.6071 11.344 16.9219 11.0292 16.9219 10.6409C16.9219 10.2526 16.6071 9.93774 16.2187 9.93774Z" fill="#4B4B4B"/>
<path d="M20.4844 9.93774H19.0313C18.6429 9.93774 18.3281 10.2526 18.3281 10.6409C18.3281 11.0292 18.6429 11.344 19.0313 11.344H20.4844C20.8727 11.344 21.1875 11.0292 21.1875 10.6409C21.1875 10.2526 20.8727 9.93774 20.4844 9.93774Z" fill="#4B4B4B"/>
<path d="M10.5469 14.1564H12C12.3883 14.1564 12.7031 13.8416 12.7031 13.4533C12.7031 13.065 12.3883 12.7502 12 12.7502H10.5469C10.1586 12.7502 9.84375 13.065 9.84375 13.4533C9.84375 13.8416 10.1586 14.1564 10.5469 14.1564Z" fill="#4B4B4B"/>
<path d="M16.2187 12.7502H14.8125C14.4242 12.7502 14.1094 13.065 14.1094 13.4533C14.1094 13.8416 14.4242 14.1564 14.8125 14.1564H16.2187C16.6071 14.1564 16.9219 13.8416 16.9219 13.4533C16.9219 13.065 16.6071 12.7502 16.2187 12.7502Z" fill="#4B4B4B"/>
<path d="M20.4844 12.7502H19.0313C18.6429 12.7502 18.3281 13.065 18.3281 13.4533C18.3281 13.8416 18.6429 14.1564 19.0313 14.1564H20.4844C20.8727 14.1564 21.1875 13.8416 21.1875 13.4533C21.1875 13.065 20.8727 12.7502 20.4844 12.7502Z" fill="#4B4B4B"/>
<path d="M10.5469 16.9689H12C12.3883 16.9689 12.7031 16.6541 12.7031 16.2658C12.7031 15.8775 12.3883 15.5627 12 15.5627H10.5469C10.1586 15.5627 9.84375 15.8775 9.84375 16.2658C9.84375 16.6541 10.1586 16.9689 10.5469 16.9689Z" fill="#4B4B4B"/>
<path d="M16.2187 15.5627H14.8125C14.4242 15.5627 14.1094 15.8775 14.1094 16.2658C14.1094 16.6541 14.4242 16.9689 14.8125 16.9689H16.2187C16.6071 16.9689 16.9219 16.6541 16.9219 16.2658C16.9219 15.8775 16.6071 15.5627 16.2187 15.5627Z" fill="#4B4B4B"/>
<path d="M20.4844 15.5627H19.0313C18.6429 15.5627 18.3281 15.8775 18.3281 16.2658C18.3281 16.6541 18.6429 16.9689 19.0313 16.9689H20.4844C20.8727 16.9689 21.1875 16.6541 21.1875 16.2658C21.1875 15.8775 20.8727 15.5627 20.4844 15.5627Z" fill="#4B4B4B"/>
</svg>
