<svg width="24" height="21" viewBox="0 0 24 21" fill="none" xmlns="http://www.w3.org/2000/svg">
<path fill-rule="evenodd" clip-rule="evenodd" d="M18.4186 4.41081H21.7674C23.0005 4.41081 24 5.39821 24 6.61622V13.7838C24 15.0018 23.0005 15.9892 21.7674 15.9892H18.4186V19.573C18.4126 20.0272 18.0413 20.3941 17.5814 20.4H6.4186C5.95874 20.3941 5.58741 20.0272 5.5814 19.573V15.9892H2.23256C0.99955 15.9892 0 15.0018 0 13.7838V6.61622C0 5.39821 0.99955 4.41081 2.23256 4.41081H5.5814V0.827027C5.58741 0.372755 5.95874 0.00593895 6.4186 0H17.5814C18.0413 0.00593895 18.4126 0.372755 18.4186 0.827027V4.41081ZM16.7439 1.65395H7.25555V4.41071H16.7439V1.65395ZM16.7439 18.746H7.25555V11.5784H16.7439V18.746ZM21.7665 14.3352C22.0747 14.3352 22.3246 14.0884 22.3246 13.7839V6.61632C22.3246 6.31182 22.0747 6.06497 21.7665 6.06497H2.23158C1.92333 6.06497 1.67344 6.31182 1.67344 6.61632V13.7839C1.67344 14.0884 1.92333 14.3352 2.23158 14.3352H5.58042V11.5785H5.30135C4.83897 11.5785 4.46414 11.2082 4.46414 10.7515C4.46414 10.2947 4.83897 9.92443 5.30135 9.92443H18.6967C19.1591 9.92443 19.5339 10.2947 19.5339 10.7515C19.5339 11.2082 19.1591 11.5785 18.6967 11.5785H18.4176V14.3352H21.7665Z" fill="#4B4B4B"/>
<path d="M4.74473 7.44336H3.62845C3.3202 7.44336 3.07031 7.69021 3.07031 7.99471C3.07031 8.29921 3.3202 8.54606 3.62845 8.54606H4.74473C5.05298 8.54606 5.30287 8.29921 5.30287 7.99471C5.30287 7.69021 5.05298 7.44336 4.74473 7.44336Z" fill="#4B4B4B"/>
</svg>
