<svg width="18" height="18" viewBox="0 0 18 18" fill="none" xmlns="http://www.w3.org/2000/svg">
<path d="M16.6822 6.53598L11.1712 5.97059L8.98209 0.347544C8.8288 -0.0461866 8.32414 -0.0461866 8.1709 0.347544L5.98176 5.97054L0.470778 6.53598C0.0848803 6.57554 -0.0710448 7.10647 0.220078 7.3894L4.37813 11.43L3.16127 17.4025C3.07605 17.8207 3.48437 18.1488 3.81756 17.9299L8.57649 14.8041L13.3354 17.9299C13.6687 18.1488 14.0769 17.8207 13.9917 17.4025L12.7748 11.43L16.9329 7.3894C17.224 7.10647 17.0681 6.57554 16.6822 6.53598Z" fill="#FFDC64"/>
<path d="M9.70877 2.34007L8.91271 0.295298C8.75942 -0.0984327 8.25476 -0.0984327 8.10152 0.295298L5.91239 5.91829L0.401442 6.48373C0.0155443 6.52329 -0.140381 7.05423 0.150743 7.33715L4.3088 11.3777L3.09193 17.3502C3.00672 17.7684 3.41503 18.0965 3.74823 17.8777L4.38161 17.4617C5.41997 10.0264 8.33911 4.56845 9.70877 2.34007Z" fill="#FFC850"/>
</svg>
