<svg width="20" height="20" viewBox="0 0 20 20" fill="none" xmlns="http://www.w3.org/2000/svg">
<path d="M1.53823 8.52185L1.53824 8.52186L5.53145 12.371L4.36086 18.0701C4.28924 18.4188 4.42479 18.7451 4.6656 18.937C4.91064 19.1324 5.27234 19.189 5.58914 18.9827L5.38357 18.6671L5.58915 18.9826L10.1246 16.0276L14.6601 18.9826C14.9769 19.1891 15.3387 19.1324 15.5837 18.937C15.8245 18.7451 15.96 18.4188 15.8884 18.0701L15.8884 18.0701L14.7178 12.371L18.711 8.52186L18.7111 8.52185C18.9716 8.27071 19.0234 7.91749 18.9388 7.63193C18.8541 7.34598 18.6125 7.07081 18.2381 7.03271C18.2381 7.03271 18.2381 7.03271 18.238 7.03271L12.9763 6.49724L10.8793 1.15424L10.5287 1.29182L10.8793 1.15423C10.7468 0.816786 10.4447 0.623414 10.1246 0.623414C9.80453 0.623414 9.50244 0.816783 9.37002 1.15424C9.37001 1.15425 9.37001 1.15426 9.37001 1.15427L7.27302 6.49719L2.01125 7.03271C2.01124 7.03271 2.01123 7.03271 2.01122 7.03271C1.63675 7.07081 1.39513 7.34597 1.31045 7.63194C1.22589 7.91751 1.27772 8.27072 1.53823 8.52185Z" stroke="#CEDAE1" stroke-width="0.753173"/>
</svg>
