<svg width="16" height="16" viewBox="0 0 16 16" fill="none" xmlns="http://www.w3.org/2000/svg">
<path fill-rule="evenodd" clip-rule="evenodd" d="M16 8C16 12.4107 12.4107 16 8 16C3.58934 16 0 12.4107 0 8C0 3.58934 3.5893 0 8 0C12.4107 0 16 3.58934 16 8ZM14.9337 8.00031C14.9337 4.17629 11.8243 1.06696 8.00031 1.06696C4.17633 1.06696 1.06696 4.17629 1.06696 8.00031C1.06696 11.8243 4.17629 14.9337 8.00031 14.9337C11.8243 14.9337 14.9337 11.8243 14.9337 8.00031Z" fill="#4B4B4B"/>
<path d="M10.3335 10.5495C10.4321 10.6295 10.5494 10.6669 10.6668 10.6669C10.8241 10.6669 10.9788 10.5975 11.0828 10.4669C11.2668 10.2375 11.2294 9.90153 11.0001 9.71752L8.53345 7.74418V3.73352C8.53345 3.44018 8.29346 3.2002 8.00012 3.2002C7.70678 3.2002 7.4668 3.44018 7.4668 3.73352V8.0002C7.4668 8.16288 7.54148 8.31487 7.66679 8.41618L10.3335 10.5495Z" fill="#4B4B4B"/>
</svg>
