<svg width="30" height="20" viewBox="0 0 30 20" fill="none" xmlns="http://www.w3.org/2000/svg">
<path d="M28.125 0H1.875C0.8412 0 0 0.694913 0 1.55115V15.5115C0 16.3677 0.8412 17.0626 1.875 17.0626H12.6216C12.213 16.4704 11.7114 16.2251 11.0874 15.2527H2.1878V1.80942H27.8128V15.2527H25.9506V16.4099C25.9506 16.463 25.9416 16.7122 25.8738 17.0616H28.125C29.1588 17.0616 30 16.3662 30 15.5105V1.55115C30 0.694913 29.1588 0 28.125 0Z" fill="#111111" fill-opacity="0.7"/>
<path d="M23.4313 8.712H23.3257C22.7113 8.712 22.2109 9.12498 22.2109 9.63227V10.4552H22.0741V9.63227C22.0741 9.12448 21.5725 8.712 20.9605 8.712H20.8513C20.2387 8.712 19.7389 9.12498 19.7389 9.63227V10.4552H19.6009V9.63227C19.6009 9.12448 19.1005 8.712 18.4885 8.712H18.3781C17.7661 8.712 17.2657 9.12498 17.2657 9.63227V10.4552H17.1931V5.19674C17.1931 4.68597 16.6933 4.27052 16.0735 4.27052L15.9649 4.27002C15.3487 4.27002 14.8471 4.68548 14.8471 5.19674V13.2423C14.5483 12.9634 14.2855 12.679 14.0449 12.4223C13.5097 11.8495 13.0891 11.3959 12.6139 11.3055C12.0865 11.2018 11.5993 11.3472 11.3647 11.6619C11.1445 11.9612 11.1781 12.3732 11.4565 12.8199C12.0661 13.7844 14.9947 18.0214 14.9965 18.0214C15.2281 18.485 16.2499 19.9999 19.6903 19.9999V19.8986L19.6939 19.9999C22.1959 19.9999 23.3809 19.023 23.9347 18.204C24.5323 17.3195 24.5419 16.4479 24.5419 16.4101V9.63227C24.5443 9.12399 24.0421 8.712 23.4313 8.712Z" fill="#111111" fill-opacity="0.6"/>
</svg>
