<svg width="24" height="26" viewBox="0 0 24 26" fill="none" xmlns="http://www.w3.org/2000/svg">
<path fill-rule="evenodd" clip-rule="evenodd" d="M22.125 1.68427H14.1188C13.8021 0.675116 12.9529 6.10352e-05 12 6.10352e-05C11.0471 6.10352e-05 10.1979 0.675116 9.88128 1.68427H1.875C0.83997 1.68563 0.00121505 2.62739 0 3.78954V19.7895C0.00121505 20.9517 0.83997 21.8934 1.875 21.8948H9.75V23.579C9.33579 23.579 9 23.956 9 24.4211C9 24.8862 9.33579 25.2632 9.75 25.2632H14.25C14.6642 25.2632 15 24.8862 15 24.4211C15 23.956 14.6642 23.579 14.25 23.579V21.8948H22.125C23.16 21.8934 23.9988 20.9517 24 19.7895V3.78951C23.9988 2.62738 23.16 1.68563 22.125 1.68427ZM12 1.68388C12.4142 1.68388 12.75 2.0609 12.75 2.52598C12.75 2.99106 12.4142 3.36809 12 3.36809C11.5858 3.36809 11.25 2.99106 11.25 2.52598C11.2505 2.06112 11.586 1.68441 12 1.68388ZM11.25 21.8947V23.5789H12.75V21.8947H11.25ZM1.875 20.2107C1.66798 20.2105 1.50021 20.0221 1.5 19.7897V3.78965C1.50021 3.55721 1.66798 3.36883 1.875 3.3686H9.88125C10.1978 4.37778 11.0471 5.05286 12 5.05286C12.9529 5.05286 13.8022 4.37778 14.1188 3.3686H22.125C22.332 3.36883 22.4998 3.55721 22.5 3.78965V16.8423H16.125V15.5177C16.1275 14.7195 15.7255 13.9892 15.0886 13.6347L13.4604 12.7206C13.3563 12.6622 13.2414 12.6318 13.125 12.6318H10.875C10.7586 12.6318 10.6437 12.6622 10.5396 12.7206L8.91138 13.6346C8.27446 13.9892 7.87251 14.7195 7.875 15.5177V16.8423H6.75C6.33579 16.8423 6 17.2193 6 17.6844C6 18.1495 6.33579 18.5265 6.75 18.5265H22.5V19.7897C22.4998 20.0221 22.332 20.2105 22.125 20.2107H1.875ZM9.375 16.8415H14.625V15.5168C14.6255 15.3573 14.5451 15.2113 14.4177 15.1404L12.9481 14.3151H11.0519L9.58228 15.1404C9.45492 15.2113 9.37453 15.3573 9.375 15.5168V16.8415Z" fill="#111111" fill-opacity="0.7"/>
<path fill-rule="evenodd" clip-rule="evenodd" d="M12 6.73615C13.4497 6.73615 14.625 8.05573 14.625 9.68352C14.6233 11.3105 13.449 12.629 12 12.6309C10.5503 12.6309 9.375 11.3113 9.375 9.68352C9.375 8.05573 10.5503 6.73615 12 6.73615ZM10.875 9.6837C10.875 10.3813 11.3787 10.9469 12 10.9469C12.621 10.9461 13.1243 10.381 13.125 9.6837C13.125 8.98607 12.6213 8.42054 12 8.42054C11.3787 8.42054 10.875 8.98607 10.875 9.6837Z" fill="#111111" fill-opacity="0.7"/>
<ellipse cx="3.75" cy="17.6841" rx="0.75" ry="0.842106" fill="#111111" fill-opacity="0.7"/>
</svg>
