<svg width="20" height="20" viewBox="0 0 20 20" fill="none" xmlns="http://www.w3.org/2000/svg">
<path fill-rule="evenodd" clip-rule="evenodd" d="M18.3154 1.33333H11.9771C11.7265 0.534418 11.0542 0 10.2998 0C9.54543 0 8.87313 0.534418 8.62248 1.33333H2.28418C1.46478 1.33441 0.800767 2.07997 0.799805 3V15.6667C0.800767 16.5867 1.46478 17.3323 2.28418 17.3333H8.51855V18.6667C8.19064 18.6667 7.9248 18.9651 7.9248 19.3333C7.9248 19.7015 8.19064 20 8.51855 20H12.0811C12.409 20 12.6748 19.7015 12.6748 19.3333C12.6748 18.9651 12.409 18.6667 12.0811 18.6667V17.3333H18.3154C19.1348 17.3323 19.7988 16.5867 19.7998 15.6667V2.99998C19.7988 2.07996 19.1348 1.33441 18.3154 1.33333ZM10.2998 1.33301C10.6277 1.33301 10.8936 1.63148 10.8936 1.99968C10.8936 2.36787 10.6277 2.66634 10.2998 2.66634C9.97189 2.66634 9.70605 2.36787 9.70605 1.99968C9.70643 1.63166 9.97204 1.33343 10.2998 1.33301ZM9.70605 17.3333V18.6666H10.8936V17.3333H9.70605ZM2.28429 16.0001C2.1204 15.9999 1.98758 15.8508 1.98741 15.6668V3.00008C1.98758 2.81606 2.1204 2.66693 2.28429 2.66675H8.62257C8.87321 3.46568 9.54551 4.00012 10.2999 4.00012C11.0543 4.00012 11.7266 3.46568 11.9773 2.66675H18.3155C18.4794 2.66693 18.6122 2.81606 18.6124 3.00008V13.3334H13.5655V12.2848C13.5675 11.6529 13.2493 11.0747 12.7451 10.794L11.4561 10.0704C11.3736 10.0242 11.2827 10.0001 11.1905 10.0001H9.40929C9.31711 10.0001 9.22619 10.0242 9.14373 10.0704L7.85475 10.794C7.35053 11.0747 7.03231 11.6529 7.03429 12.2848V13.3334H6.14366C5.81574 13.3334 5.54991 13.6319 5.54991 14.0001C5.54991 14.3683 5.81574 14.6668 6.14366 14.6668H18.6124V15.6668C18.6122 15.8508 18.4794 15.9999 18.3155 16.0001H2.28429ZM8.22168 13.3328H12.3779V12.2841C12.3783 12.1578 12.3147 12.0422 12.2139 11.9861L11.0504 11.3328H9.54921L8.38577 11.9861C8.28495 12.0422 8.22131 12.1578 8.22168 12.2841V13.3328Z" fill="#111111" fill-opacity="0.7"/>
<path fill-rule="evenodd" clip-rule="evenodd" d="M10.2998 5.33301C11.4475 5.33301 12.3779 6.37768 12.3779 7.66634C12.3766 8.95439 11.447 9.99818 10.2998 9.99968C9.15209 9.99968 8.22168 8.95501 8.22168 7.66634C8.22168 6.37768 9.15209 5.33301 10.2998 5.33301ZM9.40929 7.66651C9.40929 8.21879 9.80804 8.66651 10.2999 8.66651C10.7916 8.6659 11.19 8.21854 11.1905 7.66651C11.1905 7.11422 10.7918 6.6665 10.2999 6.6665C9.80804 6.6665 9.40929 7.11422 9.40929 7.66651Z" fill="#111111" fill-opacity="0.7"/>
<ellipse cx="3.76855" cy="13.9997" rx="0.59375" ry="0.666667" fill="#111111" fill-opacity="0.7"/>
</svg>
