<svg width="23" height="20" viewBox="0 0 23 20" fill="none" xmlns="http://www.w3.org/2000/svg">
<path d="M0.799805 5.45458L2.47372 7.45103C7.61502 1.31908 15.9846 1.31908 21.1259 7.45103L22.7998 5.45458C16.702 -1.81819 6.89763 -1.81819 0.799805 5.45458Z" fill="#111111" fill-opacity="0.7"/>
<path d="M4.14844 9.44744L5.82235 11.4439C9.05061 7.5936 14.431 7.5936 17.6593 11.4439L19.3332 9.44744C15.268 4.45632 8.33322 4.45632 4.14844 9.44744Z" fill="#111111" fill-opacity="0.7"/>
<path d="M7.61328 13.5829L9.28719 15.5793C10.722 13.8681 12.9937 13.8681 14.3089 15.5793L15.9828 13.5829C13.7111 10.7308 9.88502 10.7308 7.61328 13.5829H7.61328Z" fill="#111111" fill-opacity="0.7"/>
<ellipse cx="11.7982" cy="18.5745" rx="1.19565" ry="1.42603" fill="#111111" fill-opacity="0.7"/>
</svg>
